HIERARCHY
ROOT Hips
{
  OFFSET 0.0 0.0 0.0
  CHANNELS 6 XPOSITION YPOSITION ZPOSITION ZROTATION XROTATION YROTATION 
  JOINT LeftUpLeg
  {
    OFFSET 0.089458 -0.0866707 0.00101652
    CHANNELS 3 ZROTATION XROTATION YROTATION 
    JOINT LeftLeg
    {
      OFFSET 0.0 -0.444227 0.013727
      CHANNELS 3 ZROTATION XROTATION YROTATION 
      JOINT LeftFoot
      {
        OFFSET -0.00253549 -0.420924 -0.0146059
        CHANNELS 3 ZROTATION XROTATION YROTATION 
        End Site
        {
          OFFSET -0.0004 -0.0441509 0.084991
        }
      }
    }
  }
  JOINT Spine
  {
    OFFSET 0.0 0.118905 0.0
    CHANNELS 3 ZROTATION XROTATION YROTATION 
    JOINT Spine1
    {
      OFFSET 0.0 0.256574 0.00127663
      CHANNELS 3 ZROTATION XROTATION YROTATION 
      End Site
      {
        OFFSET -0.0029 0.2150836 0.02525291
      }
      JOINT RightArm
      {
        OFFSET -0.162727 -0.05365632 0.00102123
        CHANNELS 3 ZROTATION XROTATION YROTATION 
        JOINT RightForeArm
        {
          OFFSET -0.26364 0.00099144 -0.0142434
          CHANNELS 3 ZROTATION XROTATION YROTATION 
          End Site
          {
            OFFSET -0.220324 0.00085362 0.0102216
          }
        }
      }
      JOINT LeftArm
      {
        OFFSET 0.162727 -0.0536563199 0.00102123
        CHANNELS 3 ZROTATION XROTATION YROTATION 
        JOINT LeftForeArm
        {
          OFFSET 0.262597 0.00099144 -0.0142434
          CHANNELS 3 ZROTATION XROTATION YROTATION 
          End Site
          {
            OFFSET 0.220902 0.00085362 0.0102216
          }
        }
      }
    }
  }
  JOINT RightUpLeg
  {
    OFFSET -0.089458 -0.0866707 0.00101652
    CHANNELS 3 ZROTATION XROTATION YROTATION 
    JOINT RightLeg
    {
      OFFSET 0.0 -0.444227 0.013727
      CHANNELS 3 ZROTATION XROTATION YROTATION 
      JOINT RightFoot
      {
        OFFSET 0.00253549 -0.420924 -0.0146059
        CHANNELS 3 ZROTATION XROTATION YROTATION 
        End Site
        {
          OFFSET 0.0004 -0.0441509 0.084991
        }
      }
    }
  }
}
MOTION
Frames: 11
Frame Time: 0.033333
1.95317 1.03118771798 0.0812448 -2.45474992402 -0.236695990179 -91.2478985564 -0.897707023819 -1.55601997265 1.66997004629 -0.416844977622 8.35305070868 18.4399005419 -2.55339984031 -9.22844019611 0.00379178010137 -0.270467006757 8.11742028137 -0.475252993464 0.647809985521 -3.02963008443 -0.563212009513 78.5044321313 -14.9555307633 4.83781487827 7.68250030201 38.9955990284 8.85869985822 -73.2945619079 -6.11895132646 -2.55716071322 -5.34958985372 37.1309983661 -13.6053995861 -1.38466002461 -1.86122014553 -4.01425969645 0.417906991997 10.0110005825 -11.090699811 3.87329014151 -10.7803001567 -0.0777655056614 
1.95331 1.03118771798 0.0813347 -2.456270068 -0.227004005108 -91.2647008218 -0.896729026107 -1.56671007248 1.67081997795 -0.414684983658 8.36604941244 18.4404981835 -2.54982999925 -9.22737980924 0.00379177009621 -0.17344501003 8.08076948629 -0.463032984626 0.4450790053 -3.06219002309 -0.514269008355 78.5697492304 -14.9980640588 4.81240614767 7.69388025094 38.9734999513 8.85035934347 -73.2273255257 -6.54843917099 -2.65209052429 -5.48468971484 37.5907998708 -13.3392988311 -1.39624007674 -1.87012009546 -4.03558995035 0.444406978718 10.0099000683 -11.0543999169 3.87304980423 -10.7679998397 -0.0777623040102 
1.95354 1.03118771798 0.0815278 -2.44381009541 -0.21963900679 -91.2550019531 -0.901255947423 -1.60209002549 1.66252001745 -0.412991016703 8.37875014921 18.4411009477 -2.53559012205 -9.22297006836 0.00379172007041 -0.0747254978515 8.05718057421 -0.446023999324 0.249481997584 -3.1462299513 -0.461364977726 78.6421560657 -15.1110473405 4.75202172588 7.54542011291 39.336101034 8.96113988917 -73.1601711058 -6.89353362504 -2.74457384697 -5.59938993535 37.9858989935 -13.1144993763 -1.416840034 -1.8892100473 -4.06452988875 0.475531964003 9.99770988817 -11.0363998071 3.87721963472 -10.757600023 -0.077759602617 
1.95373 1.03118771798 0.081784 -2.4175399072 -0.223886984247 -91.2012005531 -0.934821951603 -1.65432998031 1.61165004917 -0.388358019502 8.3883107065 18.4429007025 -2.53893990295 -9.21700048302 0.00379166003945 -0.0474483003027 8.08111014197 -0.457470969486 0.223664002583 -3.26919000495 -0.467418019434 78.7020704851 -15.1471431827 4.69913130227 7.32833962562 39.7478999692 9.15033015276 -73.133424085 -6.7267049739 -2.69563169958 -5.54776992692 37.8450024362 -13.2094005859 -1.44164994911 -1.91289009971 -4.08655981014 0.486954014647 9.9753196743 -11.0679996773 3.90058998074 -10.7497000554 -0.077757601585 
1.95387 1.03118771798 0.0820301 -2.40837998319 -0.227864021974 -91.1450973792 -0.976199024152 -1.68734007112 1.54958006476 -0.347783013934 8.40466047182 18.4468997783 -2.55878992678 -9.21089002503 0.00379159000333 -0.0196175989645 8.18156941806 -0.503386009047 0.240209989105 -3.44579991386 -0.515279983074 78.7824140004 -14.8916087304 4.66964751006 7.32239992236 39.3057988997 9.27226952001 -73.1123666118 -6.37051018179 -2.5284222654 -5.41622987502 37.4795975609 -13.4472994898 -1.45650998614 -1.92099988213 -4.09529007256 0.47869001936 9.96632943781 -11.114700242 3.93227010566 -10.7423003992 -0.0777557006046 
1.95403 1.03117771798 0.0821811 -2.43471996739 -0.223837998984 -91.1197983585 -0.986480059678 -1.6920000744 1.53723994064 -0.337980998784 8.44956981939 18.4333982018 -2.5577899444 -9.22291969571 0.00379172007041 0.0805404034138 8.3629894877 -0.554749992101 0.140680005612 -3.67899004265 -0.547623009867 78.873569705 -14.385189477 4.63713324828 7.51232955393 38.0841990761 9.33733987846 -73.0552867209 -6.2177986779 -2.36910255348 -5.34483006564 37.3022995105 -13.5686002344 -1.45904003762 -1.90757002268 -4.10098986542 0.470697043844 9.98899029792 -11.1360001869 3.95425989969 -10.7575001314 -0.0777595959469 
1.95421 1.03110771798 0.0822244 -2.47518008705 -0.219282009344 -91.1043006593 -0.965986930847 -1.70462002284 1.57445006419 -0.368917993784 8.54166040619 18.3785995941 -2.53679010091 -9.26767024138 0.0037921999012 0.216202007575 8.57820960222 -0.588674954739 -0.0476372977735 -3.93745976877 -0.547413995406 78.9277331051 -13.9088426928 4.55799526147 7.59353964939 37.2050990884 9.47501087892 -72.9678944505 -6.18981923485 -2.26197936064 -5.35882000061 37.2262999956 -13.5686992721 -1.4697599128 -1.89782014108 -4.12834007729 0.488971962021 10.049200123 -11.1320002574 3.9762697574 -10.8048000452 -0.077771802242 
1.95436 1.03101771798 0.082238 -2.50036000631 -0.218849999879 -91.0624999016 -0.95121995514 -1.7514699979 1.59730996029 -0.390495014939 8.66846969832 18.3112983252 -2.54183995858 -9.32952016563 0.00341505018711 0.287140992625 8.74167993472 -0.608029042804 -0.150221006151 -4.14129993436 -0.548767013192 78.9292494071 -13.6512275941 4.45863479206 7.469699782 37.2007004466 9.66801921826 -72.9107735785 -6.08858729361 -2.16497445273 -5.40787996876 37.0335998685 -13.5573005402 -1.49635005268 -1.91282009027 -4.17833023183 0.532233953337 10.1336998083 -11.1374003757 4.01255001473 -10.8571005112 -0.0777853959193 
1.95446 1.03093771798 0.0822877 -2.50607986285 -0.215401994988 -90.9961992553 -0.957734995113 -1.81664995954 1.57460000819 -0.370614015132 8.79259045724 18.267100171 -2.58232996031 -9.37925077298 0.00210958984447 0.242629983825 8.75904995955 -0.616169027469 -0.05087480077 -4.15117980299 -0.574093994965 78.9080826509 -13.6260122432 4.45447477997 7.3543805756 37.5501021886 9.744509653 -72.9301713157 -6.01362554059 -2.11473862483 -5.46177997971 36.883199103 -13.5306004769 -1.51328998904 -1.94198990723 -4.21185963046 0.563451012773 10.2119003517 -11.1801001571 4.05161015904 -10.8977000094 -0.0772123003592 
1.95452 1.03088771798 0.0823271 -2.50220992036 -0.209128999844 -90.9368995529 -0.967454994632 -1.8711700236 1.54267004776 -0.341854996704 8.88060000602 18.2396991596 -2.61455991546 -9.40905003456 0.00137401007049 0.148068002458 8.59668014128 -0.609143003969 0.143311002485 -3.89007960027 -0.599986014809 78.9050500469 -13.833299093 4.61255523944 7.37376977511 37.8931006284 9.62023948369 -72.9900584143 -6.08754056712 -2.19501405159 -5.47534003964 36.997799432 -13.4884001531 -1.50289999065 -1.96830000935 -4.19949015788 0.553339984924 10.264399747 -11.2502000961 4.08509003881 -10.941300522 -0.0752330996348 
1.95448 1.03084771798 0.0823293 -2.4974300686 -0.209289002361 -90.9049001167 -0.969241942874 -1.89356002403 1.53530998532 -0.337198008309 8.91632018783 18.2129009124 -2.61677994038 -9.43056939931 0.000972901020787 0.135286010458 8.35426989745 -0.597958035595 0.187058003933 -3.50891022146 -0.595246023607 78.9431488421 -14.172875608 4.82725327138 7.41949959915 38.3534997747 9.4235103988 -73.00903951 -6.1631486268 -2.3295538372 -5.3753298485 37.1931018611 -13.5558004599 -1.48377994329 -1.98359002814 -4.16393005862 0.518488998045 10.2975005512 -11.309399907 4.12230987403 -10.9824003316 -0.0741247013387 
